<?xml version="1.0" standalone="no"?>
<!DOCTYPE svg PUBLIC "-//W3C//DTD SVG 20010904//EN"
 "http://www.w3.org/TR/2001/REC-SVG-20010904/DTD/svg10.dtd">
<svg version="1.0" xmlns="http://www.w3.org/2000/svg"
 width="150.000000pt" height="100.000000pt" viewBox="0 0 150.000000 100.000000"
 preserveAspectRatio="xMidYMid meet">

<g transform="translate(0.000000,100.000000) scale(0.100000,-0.100000)"
fill="#000000" stroke="none">
<path d="M133 833 l-43 -4 0 -270 0 -269 80 0 80 0 0 82 c0 47 4 78 9 73 4 -6
21 -43 36 -82 l27 -73 88 0 89 0 -50 108 -50 107 22 45 c12 25 32 69 45 98
l24 52 -88 0 -87 0 -24 -58 c-13 -31 -28 -61 -33 -67 -4 -5 -8 53 -8 128 l0
137 -37 -2 c-21 -1 -57 -3 -80 -5z"/>
<path d="M751 709 c-24 -5 -51 -15 -61 -24 -21 -19 -36 -19 -44 0 -4 10 -20
15 -51 15 l-45 0 0 -272 0 -273 57 3 c104 5 103 4 103 72 l0 60 65 0 c140 0
196 59 196 206 0 112 -46 195 -115 209 -17 4 -38 8 -46 10 -8 1 -35 -1 -59 -6z
m49 -197 c0 -98 -7 -112 -57 -112 l-33 0 0 84 c0 95 11 116 61 116 l29 0 0
-88z"/>
<path d="M1161 709 c-95 -13 -135 -60 -127 -148 8 -83 50 -118 161 -128 49 -4
65 -10 65 -21 0 -13 -16 -14 -109 -9 l-110 6 -8 -52 -9 -52 51 -13 c71 -18
240 -11 283 12 81 42 82 190 1 231 -17 9 -61 21 -97 26 -73 10 -77 12 -67 30
8 12 132 8 166 -6 13 -5 18 2 23 32 4 21 9 46 12 55 4 13 -4 19 -33 26 -57 15
-142 19 -202 11z"/>
</g>
</svg>
