<?xml version="1.0" standalone="no"?>
<!DOCTYPE svg PUBLIC "-//W3C//DTD SVG 20010904//EN"
 "http://www.w3.org/TR/2001/REC-SVG-20010904/DTD/svg10.dtd">
<svg version="1.0" xmlns="http://www.w3.org/2000/svg"
 width="150.000000pt" height="50.000000pt" viewBox="0 0 150.000000 50.000000"
 preserveAspectRatio="xMidYMid meet">

<g transform="translate(0.000000,50.000000) scale(0.100000,-0.100000)"
fill="#000000" stroke="none">
<path d="M110 345 c0 -21 -5 -25 -29 -25 -40 0 -61 -24 -61 -69 0 -54 22 -70
93 -70 l57 1 0 94 0 94 -30 0 c-25 0 -30 -4 -30 -25z m0 -90 c0 -24 -5 -35
-15 -35 -15 0 -22 50 -8 63 15 15 23 5 23 -28z"/>
<path d="M790 350 c0 -17 5 -21 28 -18 16 2 27 9 27 18 0 9 -11 16 -27 18 -23
3 -28 -1 -28 -18z"/>
<path d="M1340 275 l0 -95 30 0 c24 0 30 4 31 23 l0 22 11 -22 c8 -16 20 -23
40 -23 33 0 33 1 12 42 -15 29 -15 34 0 65 l16 33 -30 0 c-17 0 -33 -7 -39
-17 -8 -14 -10 -9 -11 25 0 40 -1 42 -30 42 l-30 0 0 -95z"/>
<path d="M233 320 c-42 -17 -56 -77 -27 -118 12 -18 25 -22 70 -22 47 0 55 3
52 18 -2 11 -16 19 -43 23 -30 5 -33 7 -12 8 27 1 67 32 67 51 0 6 -9 19 -20
30 -21 21 -51 25 -87 10z m47 -45 c0 -8 -7 -15 -15 -15 -16 0 -20 12 -8 23 11
12 23 8 23 -8z"/>
<path d="M577 323 c-4 -3 -20 -6 -37 -5 l-30 1 0 -96 c0 -83 2 -94 16 -89 9 3
20 6 25 6 5 0 9 9 9 20 0 15 7 20 28 20 16 0 36 6 46 13 25 18 25 90 1 117
-18 20 -46 26 -58 13z m18 -69 c0 -19 -6 -30 -17 -32 -19 -4 -24 21 -12 53 10
25 29 12 29 -21z"/>
<path d="M750 321 c-8 -6 -27 -7 -42 -4 l-28 6 0 -72 0 -71 30 0 c29 0 30 2
30 45 0 33 4 45 15 45 10 0 15 10 15 30 0 34 0 33 -20 21z"/>
<path d="M945 320 c-11 -4 -30 -6 -42 -3 -22 5 -23 3 -23 -66 0 -69 1 -71 25
-71 23 0 25 3 25 50 0 38 4 50 15 50 11 0 15 -12 15 -50 0 -49 1 -50 30 -50
l30 0 0 65 c0 53 -3 66 -19 75 -23 12 -29 12 -56 0z"/>
<path d="M1090 323 c-49 -19 -66 -76 -34 -121 21 -31 94 -32 94 -2 0 15 -7 20
-25 20 -21 0 -25 5 -25 30 0 23 5 31 26 36 16 4 24 12 22 23 -3 17 -32 24 -58
14z"/>
<path d="M1212 320 c-44 -19 -53 -108 -12 -130 10 -6 39 -10 64 -10 39 0 46 3
46 20 0 17 -7 20 -42 21 l-43 1 39 8 c50 10 70 42 48 78 -11 17 -71 24 -100
12z m53 -39 c7 -12 -12 -24 -25 -16 -11 7 -4 25 10 25 5 0 11 -4 15 -9z"/>
<path d="M354 288 c20 -102 24 -108 65 -108 l39 0 16 65 c20 81 21 77 -11 73
-23 -2 -29 -9 -31 -33 -5 -39 -22 -58 -22 -23 0 42 -10 58 -37 58 -23 0 -25
-3 -19 -32z"/>
<path d="M790 250 c0 -68 1 -70 25 -70 24 0 25 2 25 70 0 68 -1 70 -25 70 -24
0 -25 -2 -25 -70z"/>
</g>
</svg>
